# xmcd
#
# Track frame offsets:
#	150
#	16621
#	29941
#	45886
#	63544
#	80001
#	98047
#	117435
#	134125
#	149696
#	162099
#	180815
#	196079
#	211574
#	230895
#	244440
#	259259
#	274272
#	285864
#
# Disc length: 4000 seconds
#
# Revision: 0
# Processed by: cddbd v1.5.2PL0 Copyright (c) Steve Scherf et al.
# Submitted via: dBpowerAMP V4.0
#
DISCID=130f9e13
DTITLE=Various Artist - Promo Only Country Radio December 2006
DYEAR=2006
DGENRE=Country
TTITLE0=Blake Shelton - Don't Make Me
TTITLE1=George Strait - It Just Comes Natural
TTITLE2=Gary Allan - A Feelin' Like That
TTITLE3=Gretchen Wilson Ft. John Rich - Come To Bed
TTITLE4=Josh Gracin - I Keep Coming Back
TTITLE5=Rushlow Harris - Bagpipes Cryin'
TTITLE6=Jason M. Carroll - Alyssa Lies
TTITLE7=Blue County - I Get To
TTITLE8=Mark Wills - Take it All Out of Me
TTITLE9=Donovan Chapman - House Like That
TTITLE10=Pat Green - Dixie Lullaby
TTITLE11=Ronnie Milsap w/ Jypsi - You Don't Know My Love
TTITLE12=Amy Dalley - Everybody's Got a Vice
TTITLE13=Darryl Worley - I Just Came Back (From War)
TTITLE14=Danielle Peck - Isn't That Everything
TTITLE15=Little Texas - Your Woman
TTITLE16=Billy Ray Cyrus - I Want My Mullet Back
TTITLE17=Doo-Wah Riders, The - Dear Beer
TTITLE18=Levi - Dancing in My Mind
EXTD=
EXTT0=
EXTT1=
EXTT2=
EXTT3=
EXTT4=
EXTT5=
EXTT6=
EXTT7=
EXTT8=
EXTT9=
EXTT10=
EXTT11=
EXTT12=
EXTT13=
EXTT14=
EXTT15=
EXTT16=
EXTT17=
EXTT18=
PLAYORDER=
